<svg version="1.1" xmlns="http://www.w3.org/2000/svg" viewBox="0 0 181.599321603024 184.8147423778533" width="181.599321603024" height="184.8147423778533"><!-- svg-source:excalidraw --><metadata></metadata><defs><style class="style-fonts">
      </style></defs><g stroke-linecap="round" transform="translate(10.998561854542004 54.20411040509981) rotate(0 52.87634132461983 53.599998474121094)"><path d="M66.41 1.85 C74.79 3.32, 84.33 9.83, 90.69 16.16 C97.06 22.49, 102.31 31.17, 104.6 39.85 C106.9 48.52, 106.84 59.39, 104.48 68.21 C102.12 77.03, 96.96 86.6, 90.45 92.74 C83.93 98.88, 73.96 103.09, 65.41 105.04 C56.87 107, 47.45 106.81, 39.17 104.49 C30.88 102.16, 21.85 97.27, 15.7 91.11 C9.56 84.95, 4.43 76.07, 2.31 67.53 C0.19 58.99, 0.62 48.46, 2.97 39.86 C5.33 31.25, 10.38 22.36, 16.45 15.9 C22.51 9.45, 30.61 3.16, 39.37 1.11 C48.13 -0.93, 63.56 2.88, 69.01 3.64 C74.46 4.41, 72.3 4.9, 72.05 5.7 M62 0.37 C70.28 1.5, 81.33 7.6, 88.06 13.69 C94.8 19.78, 99.69 28.54, 102.42 36.9 C105.15 45.26, 105.8 55.45, 104.43 63.85 C103.07 72.25, 100 80.34, 94.22 87.3 C88.44 94.25, 78.14 102.63, 69.74 105.57 C61.33 108.51, 52.36 106.64, 43.82 104.91 C35.27 103.18, 25.13 100.57, 18.47 95.21 C11.8 89.84, 6.68 81.12, 3.8 72.73 C0.93 64.34, -0.51 53.98, 1.2 44.88 C2.91 35.78, 8.32 25, 14.06 18.12 C19.79 11.24, 27.68 6.3, 35.61 3.59 C43.53 0.89, 57.37 2.23, 61.62 1.92 C65.86 1.6, 61.13 1, 61.08 1.7" stroke="none" stroke-width="0" fill="#fff9db"></path><path d="M43.54 0.83 C51.37 -1.38, 61.15 0.4, 69.55 3.34 C77.94 6.29, 87.92 11.65, 93.93 18.48 C99.94 25.31, 104.2 35.46, 105.6 44.35 C107 53.23, 105.49 63.49, 102.33 71.79 C99.17 80.09, 93.25 88.25, 86.65 94.13 C80.05 100.01, 71.11 105.38, 62.74 107.09 C54.37 108.79, 44.81 107.47, 36.44 104.35 C28.06 101.24, 18.29 95.09, 12.5 88.41 C6.71 81.74, 3.4 72.96, 1.7 64.31 C0 55.66, -0.46 45.06, 2.29 36.5 C5.04 27.93, 10.77 18.95, 18.2 12.94 C25.63 6.92, 41.2 2.52, 46.89 0.41 C52.57 -1.71, 51.92 -0.56, 52.3 0.25 M31.65 5.09 C38.83 1.06, 50.11 0.02, 58.6 0.95 C67.08 1.88, 75.51 5.33, 82.57 10.68 C89.64 16.02, 97.27 25.18, 100.97 32.99 C104.66 40.81, 105.81 48.71, 104.76 57.56 C103.71 66.41, 99.57 78.53, 94.68 86.1 C89.79 93.66, 83.06 99.71, 75.43 102.94 C67.79 106.18, 57.87 106.31, 48.87 105.51 C39.88 104.71, 28.75 103.07, 21.45 98.16 C14.16 93.25, 8.62 84.57, 5.11 76.07 C1.6 67.58, -0.44 56, 0.39 47.18 C1.23 38.36, 5.19 30.33, 10.1 23.15 C15.02 15.97, 26.36 7.19, 29.89 4.1 C33.42 1.02, 30.66 3.87, 31.28 4.64" stroke="#1e1e1e" stroke-width="4" fill="none"></path></g><g stroke-linecap="round" transform="translate(10 79.20845143322464) rotate(0 54.38155906594818 47.80314547231433)"><path d="M67.17 1.27 C75.95 2.32, 85.74 7.1, 92.43 12.62 C99.12 18.14, 104.74 26.52, 107.32 34.39 C109.91 42.26, 110.28 52.18, 107.94 59.84 C105.6 67.49, 99.55 74.79, 93.28 80.32 C87.01 85.85, 78.85 90.67, 70.34 93.02 C61.84 95.36, 51.04 96.05, 42.24 94.41 C33.43 92.77, 24.01 88.55, 17.5 83.16 C10.98 77.78, 5.73 69.74, 3.14 62.09 C0.55 54.43, 0.06 45.19, 1.96 37.22 C3.86 29.24, 8.48 20, 14.52 14.24 C20.55 8.49, 28.98 4.58, 38.17 2.68 C47.37 0.77, 64.19 2.58, 69.71 2.82 C75.23 3.05, 71.47 3.31, 71.3 4.08 M34.02 4.5 C41.7 1.2, 52.02 0.52, 60.82 1.44 C69.62 2.37, 79.34 5.63, 86.82 10.06 C94.31 14.49, 102.25 20.52, 105.72 28.04 C109.2 35.55, 108.89 47.28, 107.67 55.16 C106.45 63.04, 103.78 69.04, 98.42 75.31 C93.06 81.58, 83.85 89.25, 75.52 92.79 C67.18 96.34, 57.37 97.55, 48.42 96.6 C39.47 95.64, 28.96 92.21, 21.82 87.08 C14.68 81.94, 9.09 73.23, 5.57 65.79 C2.05 58.34, -0.06 50.05, 0.68 42.41 C1.42 34.76, 4.81 26.41, 10.02 19.92 C15.22 13.43, 28.02 6.03, 31.91 3.47 C35.81 0.91, 33.01 3.51, 33.37 4.54" stroke="none" stroke-width="0" fill="#a5d8ff"></path><path d="M40.55 1.74 C48.8 -0.75, 61.49 -0.54, 70.45 1.74 C79.42 4.01, 88.3 9.55, 94.34 15.4 C100.39 21.24, 104.79 29.24, 106.71 36.83 C108.64 44.43, 108.33 53.28, 105.89 60.98 C103.45 68.69, 98.33 77.51, 92.09 83.08 C85.85 88.64, 77.29 92.61, 68.44 94.36 C59.59 96.11, 47.72 95.67, 38.98 93.56 C30.23 91.44, 22.31 87.29, 15.97 81.67 C9.63 76.05, 3.26 67.72, 0.93 59.86 C-1.41 51.99, -0.52 42.22, 1.97 34.49 C4.46 26.76, 8.08 19.35, 15.88 13.5 C23.67 7.66, 41.8 1.57, 48.71 -0.57 C55.63 -2.71, 57.39 -0.41, 57.36 0.65 M50.65 0.81 C58.9 -0.43, 68.62 1.69, 76.71 5.26 C84.79 8.82, 93.96 15.95, 99.16 22.2 C104.35 28.44, 107.36 34.82, 107.89 42.73 C108.42 50.64, 105.98 62.15, 102.32 69.65 C98.66 77.15, 93.01 83.66, 85.93 87.73 C78.85 91.8, 69.1 93.35, 59.83 94.06 C50.57 94.77, 38.65 95.12, 30.33 91.99 C22.01 88.85, 14.94 82.21, 9.93 75.28 C4.92 68.35, 1.01 58.29, 0.27 50.41 C-0.47 42.54, 1.78 35.12, 5.47 28.01 C9.16 20.89, 14.99 12.54, 22.39 7.72 C29.8 2.9, 45.22 0.35, 49.92 -0.9 C54.62 -2.14, 50.45 -0.57, 50.58 0.23" stroke="#1971c2" stroke-width="4" fill="none"></path></g><g stroke-linecap="round" transform="translate(38.36916214794974 68.34772387056631) rotate(0 2.306364817327335 1.8450900942451085)"><path d="M1.73 0.06 C2.18 0, 2.89 0.04, 3.32 0.27 C3.74 0.5, 4.13 1.04, 4.27 1.44 C4.42 1.84, 4.39 2.35, 4.2 2.68 C4 3.01, 3.51 3.24, 3.11 3.4 C2.71 3.56, 2.22 3.72, 1.81 3.62 C1.4 3.52, 0.92 3.09, 0.66 2.78 C0.4 2.48, 0.22 2.11, 0.25 1.79 C0.27 1.47, 0.55 1.18, 0.82 0.85 C1.09 0.53, 1.64 0.01, 1.89 -0.16 C2.14 -0.33, 2.25 -0.25, 2.32 -0.18 M3.02 0.22 C3.49 0.11, 4.14 0.12, 4.37 0.3 C4.59 0.47, 4.32 0.83, 4.35 1.25 C4.38 1.68, 4.72 2.54, 4.53 2.87 C4.35 3.21, 3.76 3.13, 3.25 3.26 C2.75 3.4, 1.94 3.86, 1.5 3.68 C1.07 3.5, 0.89 2.6, 0.62 2.17 C0.35 1.75, -0.23 1.4, -0.12 1.13 C0 0.86, 0.86 0.68, 1.29 0.55 C1.72 0.43, 2.27 0.43, 2.46 0.37 C2.65 0.31, 2.35 0.26, 2.44 0.17" stroke="none" stroke-width="0" fill="#fff9db"></path><path d="M2.59 -0.05 C3.15 -0.05, 3.71 0.37, 4.01 0.66 C4.32 0.94, 4.41 1.32, 4.42 1.66 C4.43 2, 4.29 2.35, 4.08 2.71 C3.87 3.07, 3.5 3.69, 3.14 3.84 C2.77 4, 2.38 3.83, 1.89 3.64 C1.41 3.46, 0.49 3.05, 0.22 2.74 C-0.04 2.43, 0.23 2.15, 0.29 1.8 C0.34 1.45, 0.24 0.95, 0.57 0.65 C0.9 0.34, 2 0.08, 2.25 -0.02 C2.5 -0.11, 2.08 0.1, 2.08 0.09 M3.08 -0.05 C3.6 0.08, 3.92 0.43, 4.19 0.78 C4.47 1.13, 4.81 1.65, 4.72 2.05 C4.64 2.45, 4.01 2.85, 3.67 3.19 C3.33 3.53, 3.14 4.14, 2.68 4.1 C2.22 4.06, 1.42 3.16, 0.94 2.95 C0.45 2.75, -0.12 3.13, -0.21 2.87 C-0.29 2.6, 0.14 1.89, 0.43 1.38 C0.73 0.86, 1.24 -0.05, 1.59 -0.21 C1.94 -0.38, 2.32 0.32, 2.53 0.39 C2.74 0.47, 2.81 0.33, 2.83 0.24" stroke="#1e1e1e" stroke-width="4" fill="none"></path></g><g stroke-linecap="round" transform="translate(82.65139479450045 66.9638997013198) rotate(0 2.306364817327335 1.8450900942451085)"><path d="M2.01 0 C2.48 -0.02, 3.11 0.3, 3.49 0.57 C3.87 0.83, 4.21 1.26, 4.3 1.61 C4.39 1.95, 4.25 2.32, 4.05 2.63 C3.86 2.95, 3.53 3.39, 3.15 3.52 C2.77 3.64, 2.19 3.51, 1.77 3.39 C1.34 3.28, 0.86 3.09, 0.61 2.83 C0.36 2.57, 0.26 2.25, 0.26 1.83 C0.27 1.41, 0.25 0.65, 0.62 0.31 C0.98 -0.03, 2.16 -0.19, 2.48 -0.22 C2.8 -0.26, 2.52 -0.02, 2.52 0.09 M3.05 -0.26 C3.41 -0.34, 3.47 -0.18, 3.8 0.15 C4.12 0.49, 4.87 1.33, 4.99 1.74 C5.11 2.16, 4.85 2.29, 4.51 2.64 C4.18 2.99, 3.46 3.77, 2.97 3.84 C2.49 3.91, 2.12 3.31, 1.61 3.06 C1.1 2.8, 0.14 2.58, -0.06 2.31 C-0.27 2.05, 0.2 1.77, 0.38 1.49 C0.56 1.21, 0.65 0.84, 1.01 0.62 C1.37 0.39, 2.2 0.3, 2.54 0.14 C2.88 -0.02, 3.1 -0.43, 3.08 -0.34" stroke="none" stroke-width="0" fill="#fff9db"></path><path d="M2.7 0.25 C3.09 0.28, 3.46 0.45, 3.73 0.67 C4.01 0.9, 4.27 1.19, 4.35 1.6 C4.43 2.01, 4.41 2.79, 4.24 3.13 C4.06 3.48, 3.79 3.6, 3.3 3.66 C2.81 3.72, 1.75 3.61, 1.29 3.48 C0.82 3.36, 0.75 3.23, 0.5 2.92 C0.26 2.6, -0.22 2.04, -0.16 1.61 C-0.1 1.18, 0.48 0.61, 0.87 0.35 C1.27 0.09, 1.94 0.15, 2.2 0.05 C2.47 -0.04, 2.37 -0.23, 2.46 -0.23 M2.12 0.15 C2.53 0.12, 3.31 0.29, 3.64 0.5 C3.96 0.72, 3.95 1.04, 4.08 1.45 C4.2 1.86, 4.55 2.72, 4.39 2.98 C4.24 3.23, 3.64 2.8, 3.15 2.97 C2.66 3.15, 1.87 3.99, 1.48 4.02 C1.08 4.05, 0.96 3.58, 0.79 3.13 C0.63 2.68, 0.52 1.67, 0.46 1.31 C0.4 0.95, 0.16 1.17, 0.44 0.98 C0.72 0.8, 1.88 0.41, 2.14 0.2 C2.41 -0.01, 2.05 -0.32, 2.03 -0.27" stroke="#1e1e1e" stroke-width="4" fill="none"></path></g><g stroke-linecap="round" transform="translate(102.5515733620905 43.799334498414794) rotate(0 10.815865483498555 14.02058221469116)"><path d="M10.83 0.28 C13.02 0.24, 15.93 1.87, 17.64 3.81 C19.35 5.75, 20.69 9, 21.07 11.93 C21.46 14.85, 21.06 18.85, 19.95 21.36 C18.84 23.88, 16.55 26.08, 14.42 27.02 C12.29 27.96, 9.29 28.03, 7.17 27.03 C5.04 26.02, 2.84 23.68, 1.65 20.99 C0.46 18.3, -0.44 13.94, 0.03 10.89 C0.5 7.83, 2.53 4.46, 4.49 2.66 C6.45 0.87, 10.54 0.43, 11.79 0.11 C13.04 -0.22, 11.99 0.44, 12 0.73 M11.53 -0.66 C13.73 -0.49, 17.36 1.95, 19.14 4.13 C20.93 6.32, 22.1 9.37, 22.23 12.43 C22.36 15.49, 21.29 20.07, 19.94 22.5 C18.59 24.93, 16.47 26.37, 14.11 27.02 C11.75 27.66, 7.92 27.51, 5.79 26.36 C3.65 25.22, 2.25 22.75, 1.32 20.14 C0.4 17.54, -0.3 13.66, 0.24 10.74 C0.77 7.81, 2.49 4.48, 4.53 2.6 C6.58 0.72, 11.35 -0.28, 12.52 -0.54 C13.69 -0.79, 11.62 0.83, 11.56 1.05" stroke="none" stroke-width="0" fill="#fff9db"></path><path d="M10.22 0.26 C12.28 -0.08, 15.25 1.06, 17.11 2.94 C18.97 4.82, 20.77 8.57, 21.4 11.53 C22.02 14.49, 21.98 18.12, 20.86 20.69 C19.75 23.26, 16.87 25.77, 14.7 26.94 C12.53 28.11, 10.09 28.58, 7.85 27.71 C5.62 26.84, 2.61 24.34, 1.31 21.73 C0 19.12, -0.29 15.04, 0.02 12.03 C0.34 9.02, 1.33 5.74, 3.18 3.67 C5.04 1.6, 9.61 0.18, 11.15 -0.4 C12.69 -0.98, 12.49 -0.18, 12.42 0.19 M10.58 0.35 C12.63 0.07, 15.03 1.31, 16.82 3.21 C18.61 5.11, 20.78 8.97, 21.31 11.73 C21.85 14.5, 21.18 17.19, 20.02 19.82 C18.86 22.46, 16.37 26.27, 14.36 27.56 C12.35 28.86, 9.96 28.71, 7.96 27.58 C5.95 26.45, 3.7 23.26, 2.35 20.78 C1 18.29, -0.37 15.47, -0.13 12.66 C0.11 9.85, 2.03 6.08, 3.8 3.9 C5.56 1.71, 9.36 0.05, 10.47 -0.47 C11.58 -1, 10.58 0.5, 10.46 0.76" stroke="#1e1e1e" stroke-width="4" fill="none"></path></g><g stroke-linecap="round" transform="translate(122.1803640127032 80.25282686290137) rotate(0 10.815865483498555 14.02058221469116)"><path d="M10.4 0.24 C12.58 -0.01, 15.47 1.29, 17.3 3.16 C19.13 5.04, 20.88 8.58, 21.4 11.5 C21.93 14.42, 21.51 18.07, 20.42 20.68 C19.34 23.29, 17.06 26.03, 14.91 27.17 C12.76 28.32, 9.78 28.61, 7.51 27.55 C5.23 26.49, 2.43 23.51, 1.26 20.8 C0.1 18.09, 0.03 14.18, 0.52 11.28 C1.02 8.38, 2.4 5.2, 4.22 3.39 C6.04 1.58, 10.17 0.85, 11.44 0.41 C12.71 -0.03, 11.88 0.52, 11.85 0.74 M9.85 0.03 C12.18 -0.53, 15.22 -0.11, 17.15 1.55 C19.08 3.2, 20.72 7.08, 21.45 9.93 C22.17 12.78, 22.48 15.94, 21.5 18.64 C20.53 21.33, 17.69 24.52, 15.6 26.1 C13.51 27.68, 11.21 28.6, 8.97 28.12 C6.73 27.64, 3.67 25.62, 2.14 23.22 C0.61 20.82, -0.4 16.94, -0.2 13.74 C0.01 10.55, 1.84 6.21, 3.37 4.06 C4.89 1.91, 7.9 1.56, 8.95 0.84 C10 0.12, 9.58 -0.46, 9.66 -0.26" stroke="none" stroke-width="0" fill="#fff9db"></path><path d="M12.43 0.2 C14.66 0.57, 17.55 3.19, 19.17 5.53 C20.79 7.87, 22.18 11.31, 22.13 14.23 C22.08 17.16, 20.4 20.72, 18.87 23.05 C17.35 25.38, 15.29 27.66, 12.98 28.21 C10.66 28.77, 7.06 27.97, 4.98 26.38 C2.91 24.79, 1.32 21.53, 0.53 18.66 C-0.25 15.79, -0.53 12.05, 0.29 9.17 C1.11 6.29, 3.19 2.89, 5.45 1.4 C7.71 -0.09, 12.52 0.25, 13.85 0.23 C15.18 0.2, 13.57 0.98, 13.43 1.25 M10.9 0.29 C13.07 0.36, 16.51 2.65, 18.22 4.57 C19.94 6.48, 21.03 8.79, 21.21 11.76 C21.38 14.73, 20.43 19.72, 19.27 22.38 C18.12 25.03, 16.31 27.07, 14.29 27.7 C12.27 28.33, 9.38 27.3, 7.14 26.14 C4.91 24.99, 1.98 23.3, 0.88 20.77 C-0.22 18.23, -0.05 14.04, 0.55 10.95 C1.15 7.86, 2.65 3.96, 4.49 2.22 C6.32 0.48, 10.52 0.87, 11.58 0.5 C12.64 0.13, 10.9 -0.05, 10.84 0.02" stroke="#1e1e1e" stroke-width="4" fill="none"></path></g><g stroke-linecap="round" transform="translate(121.19551024457314 10) rotate(0 3.3162578389496957 48.79657446629298)"><path d="M1.66 0 C2.58 0.17, 4.31 0.33, 4.97 0 C4.01 -1.11, 5.67 1.85, 6.63 1.66 C5.64 35.31, 8.47 65.64, 6.63 95.94 C5.47 99.47, 7.3 95.22, 4.97 97.59 C4.36 97.7, 3.31 97.99, 1.66 97.59 C-0.43 98.04, 0.98 95.27, 0 95.94 C0.55 61.24, -1.18 29.44, 0 1.66 C0.51 0.12, -0.9 -1.87, 1.66 0" stroke="none" stroke-width="0" fill="#868e96"></path><path d="M1.66 0 C2.53 0.07, 3.43 -0.03, 4.97 0 M1.66 0 C2.67 -0.04, 3.64 0.05, 4.97 0 M4.97 0 C6.8 -0.67, 7.21 0.39, 6.63 1.66 M4.97 0 C6.02 -0.92, 6.8 0.44, 6.63 1.66 M6.63 1.66 C6.25 22.99, 6.95 42.99, 6.63 95.94 M6.63 1.66 C6.32 32.62, 6.69 63.67, 6.63 95.94 M6.63 95.94 C6.15 96.04, 5.37 98.33, 4.97 97.59 M6.63 95.94 C7.33 97.37, 7.14 96.51, 4.97 97.59 M4.97 97.59 C4.14 97.61, 3.08 97.61, 1.66 97.59 M4.97 97.59 C3.75 97.53, 2.58 97.54, 1.66 97.59 M1.66 97.59 C0.54 96.94, 0.55 96.27, 0 95.94 M1.66 97.59 C1.1 96.56, -0.22 96.91, 0 95.94 M0 95.94 C0.52 68.57, 0.52 41.94, 0 1.66 M0 95.94 C-0.09 71.77, 0.33 47.2, 0 1.66 M0 1.66 C0.82 1.52, 1.44 0.41, 1.66 0 M0 1.66 C0.87 -0.1, -0.04 -1.12, 1.66 0" stroke="#1e1e1e" stroke-width="4" fill="none"></path></g><g stroke-linecap="round" transform="translate(127.95945359667735 42.650533002146574) rotate(0 21.81993400317333 7.204696226849109)"><path d="M3.6 0 C18.55 2.01, 29.5 -1.33, 40.04 0 C41.47 1.29, 44.95 0.61, 43.64 3.6 C44.38 5.52, 43.2 9.83, 43.64 10.81 C44.86 10.84, 42.49 16.03, 40.04 14.41 C29.17 16.76, 13.24 14.95, 3.6 14.41 C2.18 12.63, 1.73 10.85, 0 10.81 C-0.81 9.71, 0.2 6.59, 0 3.6 C-1.46 -0.67, 2.55 -2.13, 3.6 0" stroke="none" stroke-width="0" fill="#868e96"></path><path d="M3.6 0 C16.48 -0.17, 30.84 0.73, 40.04 0 M3.6 0 C18.09 0.44, 33.1 -0.27, 40.04 0 M40.04 0 C43.01 -0.17, 43.59 0.4, 43.64 3.6 M40.04 0 C42.61 -0.12, 42.69 2.33, 43.64 3.6 M43.64 3.6 C43.56 5.62, 43.71 7.52, 43.64 10.81 M43.64 3.6 C43.59 6.25, 43.52 8.39, 43.64 10.81 M43.64 10.81 C42.93 13.95, 43.05 14.7, 40.04 14.41 M43.64 10.81 C44.7 12.13, 42.09 15.26, 40.04 14.41 M40.04 14.41 C27.3 14.48, 16.47 13.52, 3.6 14.41 M40.04 14.41 C30.61 14, 21.04 13.96, 3.6 14.41 M3.6 14.41 C1.75 13.64, 0.48 12.31, 0 10.81 M3.6 14.41 C0.98 14.28, -0.11 13.73, 0 10.81 M0 10.81 C0.24 9.36, -0.17 7.22, 0 3.6 M0 10.81 C0.05 8.25, 0.17 5.61, 0 3.6 M0 3.6 C0.89 1.61, 1.96 -0.57, 3.6 0 M0 3.6 C-0.59 0.08, 2.08 -0.18, 3.6 0" stroke="#1e1e1e" stroke-width="4" fill="none"></path></g></svg>